/* XPM */
static const char *torch_frame_0[] = {
/* columns rows colors chars-per-pixel */
"32 64 16 1 ",
"  c #513B50",
". c #8F3950",
"X c #664665",
"o c #E43C3C",
"O c #BF4B4B",
"+ c #FF5442",
"@ c #83797B",
"# c #FF7B3A",
"$ c #D59151",
"% c #FFD452",
"& c white",
"* c white",
"= c white",
"- c white",
"; c white",
": c None",
/* pixels */
"::::::::::::::::::::::::::::::::",
"::::::::::::::::::::::::::::::::",
"::::::::::::::::::::::::::::::::",
"::::::::::::::::::::::::::::::::",
"::::::::::::::::::::::::::::::::",
"::::::::::::::::::::::::::::::::",
"::::::::::::::::::::::::::::::::",
"::::::::::::::::::::::::::::::::",
"::::::::::::::::::::::::::::::::",
"::::::::::::::::::::::::::::::::",
"::::::::::::::::::::::::::::::::",
"::::::::::::::::::::::::::::::::",
":::::::::::::::oo:::::::::::::::",
"::::::::::::::o+::::::::::::::::",
":::::::::::::o++::::::::::::::::",
"::::::::::::o+##::::::::::::::::",
"::::::::::::+###+:::::::::::::::",
":::::::::::o##%##+o:::::::::::::",
":::::::::::o#%%%##+o::::::::::::",
":::::::::::+#%##%##o::::::::::::",
":::::::::::##%+o+##+::::::::::::",
":::::::::::###oo++#+o:::::::::::",
":::::::::::o#+@XX##+o:::::::::::",
"::::::::::::oO@XX@#+::::::::::::",
":::::::::::: O....O ::::::::::::",
":::::::::::: ...... ::::::::::::",
":::::::::::: ...... ::::::::::::",
"::::::::$$   X....X   $$::::::::",
"::::::::XX  $XX..XX$  XX::::::::",
"::::::::XX XX$OOOO$.X XX::::::::",
"::::::::XX XXXX...XXX XX::::::::",
":::::::::: XX.......X ::::::::::",
"::::::::::@XX......XX ::::::::::",
"::::::::::@ X......XX@::::::::::",
"::::::::::@@        @@::::::::::",
"::::::::::@@@  XX  @@@::::::::::",
"::::::::::@@@  XX  @@@::::::::::",
":::::::::::::  ..  :::::::::::::",
":::::::::::::  ..  :::::::::::::",
":::::::::::::  ..  :::::::::::::",
":::::::::::::@ .. @:::::::::::::",
":::::::::::::@ XX @:::::::::::::",
":::::::::::::@ XX @:::::::::::::",
":::::::::::::@ XX @:::::::::::::",
":::::::::::::@ XX @:::::::::::::",
":::::::::::::@@XX@@:::::::::::::",
":::::::::::::@@XX@@:::::::::::::",
"::::::::::::::@XX@::::::::::::::",
"::::::::::::::@XX@::::::::::::::",
"::::::::::::::@@@@::::::::::::::",
"::::::::::::::@@@@::::::::::::::",
"::::::::::::::@@@@::::::::::::::",
"::::::::::::::@@@@::::::::::::::",
":::::::::::::::@@:::::::::::::::",
":::::::::::::::@@:::::::::::::::",
":::::::::::::::@@:::::::::::::::",
":::::::::::::::@@:::::::::::::::",
":::::::::::::::@@:::::::::::::::",
":::::::::::::::@@:::::::::::::::",
":::::::::::::::@@:::::::::::::::",
"::::::::::::::::::::::::::::::::",
"::::::::::::::::::::::::::::::::",
"::::::::::::::::::::::::::::::::",
"::::::::::::::::::::::::::::::::"
};
