/* XPM */
static char *a64aafc5c264434688bda71fbc77bc5d2OpHkdzGBHe7u6SI[] = {
/* columns rows colors chars-per-pixel */
"64 64 238 2 ",
"   c #080A05",
".  c #170705",
"X  c #13140D",
"o  c #0C1917",
"O  c #141D1C",
"+  c #181B18",
"@  c #0D0D14",
"#  c #301A08",
"$  c #11211E",
"%  c #1A211E",
"&  c #192615",
"*  c #0E2217",
"=  c #21281D",
"-  c #373014",
";  c #181B24",
":  c #191D36",
">  c #261A28",
",  c #152323",
"<  c #1B2423",
"1  c #1C2926",
"2  c #1B262A",
"3  c #1D2B2B",
"4  c #152A2B",
"5  c #1A2D31",
"6  c #232423",
"7  c #232C2C",
"8  c #2B2B2B",
"9  c #262727",
"0  c #29342C",
"q  c #37352A",
"w  c #222D31",
"e  c #2C2A31",
"r  c #243233",
"t  c #2A3535",
"y  c #2B353A",
"u  c #25383B",
"i  c #2C3B3D",
"p  c #273737",
"a  c #333433",
"s  c #323B3C",
"d  c #3C3C3B",
"f  c #373637",
"g  c #32253C",
"h  c #492F0C",
"j  c #743402",
"k  c #453A39",
"l  c #483A2A",
"z  c #481200",
"x  c #37443B",
"c  c #374331",
"v  c #58481A",
"b  c #504411",
"n  c #694C18",
"m  c #434138",
"M  c #53422F",
"N  c #6D5231",
"B  c #6C6426",
"V  c #2D3D42",
"C  c #333D43",
"Z  c #3B3A46",
"A  c #382D46",
"S  c #4A3C53",
"D  c #413C43",
"F  c #2E4244",
"G  c #344344",
"H  c #3A4445",
"J  c #35454A",
"K  c #3A464B",
"L  c #364A4D",
"P  c #3B4B4D",
"I  c #3A4945",
"U  c #364D53",
"Y  c #3C4D52",
"T  c #3D5154",
"R  c #3E535A",
"E  c #385456",
"W  c #3C5760",
"Q  c #424B4C",
"!  c #454846",
"~  c #46514C",
"^  c #424E52",
"/  c #484A58",
"(  c #435254",
")  c #4C5255",
"_  c #43555A",
"`  c #4A565B",
"'  c #455A5C",
"]  c #4B5B5D",
"[  c #475856",
"{  c #52595B",
"}  c #514955",
"|  c #55635C",
" . c #706D55",
".. c #455C62",
"X. c #4B5D62",
"o. c #4A5760",
"O. c #525D63",
"+. c #565862",
"@. c #456365",
"#. c #4D6265",
"$. c #4E6569",
"%. c #4D6A6B",
"&. c #526365",
"*. c #596365",
"=. c #53666A",
"-. c #5A666B",
";. c #546A6C",
":. c #5B6A6D",
">. c #4E6C72",
",. c #556D72",
"<. c #5B6D72",
"1. c #576F79",
"2. c #567273",
"3. c #5C7375",
"4. c #5D7579",
"5. c #5D7A7D",
"6. c #597679",
"7. c #54716F",
"8. c #626C6E",
"9. c #616969",
"0. c #636E73",
"q. c #606E79",
"w. c #627375",
"e. c #6A7275",
"r. c #62757A",
"t. c #647A7D",
"y. c #6A7B7D",
"u. c #6A7879",
"i. c #737C7D",
"p. c #7C7661",
"a. c #625F4C",
"s. c #9F691F",
"d. c #937129",
"f. c #93631A",
"g. c #9C7647",
"h. c #96734C",
"j. c #987B54",
"k. c #6B807F",
"l. c #7D8779",
"z. c #C18638",
"x. c #AF904A",
"c. c #888964",
"v. c #C7B65B",
"b. c #D5B167",
"n. c #F0C569",
"m. c #657E81",
"M. c #6A7D82",
"N. c #647B86",
"B. c #727D82",
"V. c #787F85",
"C. c #5C7780",
"Z. c #658183",
"A. c #6C8385",
"S. c #6C848A",
"D. c #6D8A8B",
"F. c #67848B",
"G. c #738284",
"H. c #73858A",
"J. c #79868B",
"K. c #748A8D",
"L. c #7B8B8E",
"P. c #788485",
"I. c #6C8790",
"U. c #758D91",
"Y. c #7B8E92",
"T. c #748090",
"R. c #769294",
"E. c #7C9295",
"W. c #7D9599",
"Q. c #7C9A9B",
"!. c #769198",
"~. c #7E9AA3",
"^. c #808B8B",
"/. c #828D92",
"(. c #829296",
"). c #899495",
"_. c #839599",
"`. c #8A969B",
"'. c #849A9C",
"]. c #8A9B9D",
"[. c #8E9B94",
"{. c #919C9F",
"}. c #949590",
"|. c #90A19D",
" X c #849EA1",
".X c #8B9DA2",
"XX c #8894A4",
"oX c #919EA3",
"OX c #999DA8",
"+X c #85A2A3",
"@X c #8DA2A5",
"#X c #8CA4A9",
"$X c #8DAAAD",
"%X c #92A3A5",
"&X c #94A5A9",
"*X c #9AA6AB",
"=X c #95AAAC",
"-X c #9AAAAD",
";X c #99A6A5",
":X c #94ACB1",
">X c #9CADB2",
",X c #99A5B2",
"<X c #9DB1B4",
"1X c #9BB5B9",
"2X c #97B4B5",
"3X c #91ACB2",
"4X c #A1ACAD",
"5X c #A3A2A7",
"6X c #A2AEB2",
"7X c #A3B2B5",
"8X c #AAB4B4",
"9X c #A4B5B9",
"0X c #ABB6BB",
"qX c #A4BABC",
"wX c #ACBABD",
"eX c #B2BBBE",
"rX c #A3B2AD",
"tX c #9EB9C0",
"yX c #ADBDC1",
"uX c #B2BEC2",
"iX c #ACC2C5",
"pX c #AEC6C9",
"aX c #B3C2C5",
"sX c #B9C3C6",
"dX c #B4C5C9",
"fX c #BBC5CA",
"gX c #B4CACC",
"hX c #BCCACC",
"jX c #BACED1",
"kX c #BBD2D5",
"lX c #C1CACD",
"zX c #C4CCD1",
"xX c #C4D2D4",
"cX c #CAD6D9",
"vX c #C9D3D7",
"bX c #D0DBDD",
"nX c #D2DEE2",
"mX c #D3E1E4",
/* pixels */
"|.hXiXdXgXiXsXrXeX8X7X;X=XqX-X;X4X4X-X&X-X4X;X).8X*X].%X-X-XoX`.).-X%X(.'.%X].`.{.`.%X@X].%X&X`.{.].`.@X=X=X].(.{.;X-X=X.X=X-Xu.",
"0X-X'.:X:X>X7XaX;X(.@X=X:X].k.P.P.u.y.E.W.G.G.L.y.r.t.A.K.K.J.J.0.J.K.y.y.A.M.y.J.G.y.3.;.A.(.L.r.u.A.S.S.A.y.u.^.P.(.K.!.K.K.T ",
">XH.2.!.!.:X>XiX`.M.A.K.R.K.A.(.X._ #.m.S.m.A._.=.;.3.m.m.m.A.L.G =.4.3.4.t.r.r.' #.;.$.$.m.H.r.L ' 3.m.t.4.3.q.Q ( K.1.6.R ,.Y ",
"pX#X1.I.F.$X:X'.Y ;.'.:X1X2XM.X.5 U 5.R. XQ.A.=.u R t.W.R.4...Y 5 T $.%.2.3.=.X.r L ..@.@.t.t.X.u Y ,.m.Z.4.;.=.G J A.1.>.R 1...",
"=X X..F.~.tXkX9X&X@X=X X+X2X@X.XY.U.S.m.F.R.W.E.J.A.m.m.t.t.M.J.X.3.4.6.m.t.;.&.] #.;.#.#.m.U.M.=.3.A.U.U.S.r.<.&._ t.C.1.F.3...",
"aX9XD.~.1XR.M.&.-.^ _ ' _ T J ` ( F V T T F u i i i G T T L G C C G u 5 u u r r y r r 5 4 i K C G G F G G G C i G K r.4.$.A.=.R ",
"7X&X=XK.1XY.P I y < 3 r r 2 o 7 r O o $ $ o O 9 O o o $ $ $ O < < 1 O o O , % 2 O o , 3 , 1 1 , 9 2 , , , 1 1 1 @ r L.4...;.X.P ",
"8X-XgX' '.@X( { ) Q Q t r H s s 6 8 8 1 < 6 6 % 9 7 t i t 7 9 9 % 7 7 1 1 < O % 6 O < r 0 7 t 0 8 0 7 3 1 < < O o t -Xy.t.3.&.p ",
"9XqX3.$.=X@X=.X.{ { ] ( P K H H i H y y w w C 2 p 7 r i i 7 3 r 3 r r r r 2 , 7 r , , r p w w i i r 3 w r r w 7 ; H {.<.X.G J / ",
"wXyX'.#XpXE.] w.:.u.k.k.w.;.&.] G ^ K K i y ^ V G G H H G H i p p s i s H t 7 p r 7 p G G i i G L G C V i y y r w H %XM.w.X.' Y ",
"yXiXqXjXkXE.X.u.<.A.W.'.E.S.w.=.L ' ' _ J G _ L K ` ] ( ( ] ( G G G G G P G r p p G P ^ ^ Y ( _ ( T P K G G C s G H &XW.D.4.<.L ",
"yXyXiXpXgX.X=.:.3.A.E.Q.Q.R.m.;.' #.;.#.T T ' Y ( ] &.&.&.=.&.` ( ( K K ( G p i J Y ( Y ( X.=.=.' ( T Y ^ ( ^ P ( F =X XF.5.Z.U ",
"yXwXiXiXpX.X] O.m.K.R.R.Q.Q.K.t.;.;.4.;.' #.' Y ] ' ] =.;.&.#.&.:.&.( Y ( L F J T _ _ T _ =.;.#.#.#.' ( ] &.&.( ` J 1X+X6.2.S...",
"yXqXgXjXjXE.J :.S.R.Q.Q.Q.#X'.H.;.#.3.=.' $._ L #.' ' =.;.X.X.;.r.3.X._ _ Y J Y _ X.X.X.#.=.X.Y ;.;.#.' X.=.&._ ] T 9X'.2.,.S.$.",
"yXyXgXiXjX'.F :.r.Y.+X+X+X+X_.H._ ( <.X._ &._ Y X.] X.#.=.=.:.<.t.r.;.X.X.T Y ' ' X.=.;.;.=...R $.;.;.X.] #.#.] *.( 7X'.t.3.M...",
"9XdXiX XpX<XY O.;.Y.:X:X#X+XW.A.L Y <.&._ =.] ] R X.#.X.$.r.M.t.A.A.r.<.,.X...;...X.=.;.=.#.#.=.#.3.4.;.] #.;.=.*.( >XW.F.5.r.Y ",
"yX9XL.<.aX%X] =.<..X=X2XiXqX+X2.J L L T =.r.<.' L #.<.#.=.K.'.t.m.K.K.H.H.H.w.X.#.' ' #.;.4.m.S.3.t.t.r.3.<.;.=.-.&.7X`.w.^ &.K ",
"dXhX7X%XcX>X&.<.M.&X=X9XgXqXW.' J Y T ' ;.3.;._ T T #.;.=.4.K._.y.S.K.K.Y.Y.G.<.' #.;.y.K.W.'.'.A.A.M.r.<.3.<.;.:.X.7X-XL.X.<.] ",
"fXcXxXvXnX7X-.y.J.=X&X1XgXqXU.U F Y ' #.3.t.4.=.$.' =.t.r.t.K._.4.A.K.Y._.].(.P.3.t.A.Y.'.'._.E.E.Y.M.w.3.r.r.3.0.] 9XaX>Xm.F.;.",
"uXxXxXmXcX7X:.J.L.=X&X<XgXyX'.$.#.$.=.;.r.A.M.3.=.#.3.A.K._._.K.4.m.K.E.'.@X.X(.Y.Y.E._._._.E.Y.'.E.G.r.t.M.M.t.-.` 9XdXiX'.R.%.",
"uXzXhXbXcX0X8.P._.9X7XwXgXdX<XR._.K.t.<.3.y.4.$.#.X.4.K.E._.'.E.A.K.E.'..X@X.X_.E._.'..X%X%X.X.X]._.L.P.J.L.J.B.0.O.>X>X9X=X$X%.",
"aXvXlXzXnXuX0.u._.yXyXaXdXyX9X&X=X.XK.4.3.r.3.$.4.;.A.@XE.t.H.@XR.'..X%X&X%X.X].Y._..X=X>X>X&X.X.X.X`.(.(.(.Y.P.P.q.9X&X>X<XqXF.",
"sXcXuX*XcX0X8.e./.wXaXfXdX9X>X.X_.'.Y.M.t.M.M.t.S.t.Y.=X'.M.S.W.E.W..X&X=X=X-X-X.X%X&X-X>X-XoX].&X&XoX`.(.Y.J.B.B.q.yX7X6X-XwX(.",
"uXzX6XB.sX*X-.e./.wXfXxXjX9X>X].H.W.'.K.A.A.H.S.r.r.K.'.@X#X_.y.A.K.W.@X-X>X7X0X7X>X-X&X&X&X&X&X-X-X&X`.Y.P.M.r.=.X.0XuX9X`.*XJ.",
"sXuXi.*.uX).*.P.y.].uXzXzXuX-X'.Y.K..X_.H.J.K.'.K.R.R.E.'.'._..XQ.R.E.9X&X-X8X-X&X9X<X-X7X-X&X7X3X<X8X^._.U.q.9.-.H qX=X3.X.Y.H.",
"hXbXeX6XbX`.{ i.A._.7XsXfXuX&XE.Y.H.@X=X&X=X.X.XW.+X#X=X<X&X.X&XQ.'..X9X7XaX8X4X9XyXyXwXuXwX0XuXiX-X4X).@X@XH.q.-.( 7X@X6.A.&XH.",
"8XxXsXxXcX/.Q e.K.(.-XuXfXyX-X].>X'.=X7XyXhXyXqX'..X@X-X9X-X].].+X=X>X=X-XwXB.B.u.e.i.i.i.i.i.e.u.P.8X0X.X_.t.&.` ( <X=XD.$X$X,.",
"wXsX6XzXlX).^ e.G.(.-XuXaX9X>X6X<X_..X&X<XwX=X.XW.E.Y.].<X-X].`..X<X1X'.%X4XQ ! ! a d ! d ! ! a = ~ {.eX5X8X].Z.( [ =X:XD.$XR.U ",
"eXfX4XhXsX^.K 8.y.L.*X0X7X%X*XwX.XY.&X7X9X>XY.y.'.K.M.E.7X7X&X%X_.>X<X'.-X8XH Z d 8 a m f d d 9   ) -X}.p.j.l.D.&.' '.'.6.R.5.E ",
"4XhXeXhXlXP.H 0.B.J.%X7X-X].%XeX%X_.-X9X9X7X'.L.'.J.t.Y.6X9X*X6X/.7X>X#X7X8X) ! 8 6 8 a a a 8 % . | [.a.N h q V &.( '.Q.t.m.,.R ",
"6XcXfXwXxXP.^ P.V.i.L.=X<X%X*X0X&XY..X&X&X<X&X%X].E.L.oXwX0X6X0XoX0X%X#X=X{.) D 6 9 8 e d a 9 9 > Q | v b.d.# @ O.( &X'.D.t.,.Y ",
"eXcX4XP.8X0.H e.i.-.3.'.<X-X*X6X%XE.&X9XwXdX9X>X-X-X>XaXvXfXuXzXOX0X'.@X@X^.{ k ; e e a ! d e a @ O.l.B n.f.. ; 8.{ -XA.y.3.r._ ",
"0XsXw.p -X0.Z +.-.O.=.A..X@X.X.XY.@X-X=X1XiXqX#X.X<XwXuXsXwX0XfX0X-X>X=X&X/.! 6 : - M M h l D + + ~ -Xc.v.h > * H ( -X(.3.L <.q.",
"uXaXJ.y.J.-.C +.` O.3.K.E.E._.%XK.E.E.E.'.=X=X@XiX<X%X6XaX0X-X6X7X-X>X>XyX;X) 9 ; b N N g.N e 0 + I -Xc.v.h A 0 9 H .X@XS.r.M.-.",
"7X.X(.=X=.P i ) O.O.:.K..X@X].`.K.K.K.Y.'.@X=X=XjX<X'.-XyX6XoX*X%X@X.X&XdX*XQ 9 ; v n z s.n @ ! 6 I >Xc.v.h S x 2 ( %XyX#XqX@Xr.",
".Xw.K.'.$.u y P *.O.<.Y.=X<X=X.X(.(.].=X<X-X-X7X7X<X-X-X>X%XoX7X`.@X_._.9X`.H a @ B g.j z.h.> p + x >Xc.v.h } x 2 ^ %X<X=XiX:X<.",
"(.;.4.y.;.J w ^ ^ O.y.W.@X&X-X7X-X&X>XwXyX6X-X>X.X9X7X.X_.].&X9X%X=X'.K..XG.H ~ 9 n x.j s.N e 0 X x ,Xp.x.h S c 2 Q 7X=X2X1X:X,.",
"Y.r.] $._ ` O K H ( ;.A._.@X=X-XyXwXwXaXwX-X&X-X-XwX=XJ.K.'.@X X].'.R.m.H.:.H ) f b j.h.g.N g 0 X x &Xp.d.h } c < Q aX9X1X#X#X,.",
"L.y.:.P J ^ O s K P _ <.Y.&X&X.XwXwXuXyX0X>X-X-X0XwX%XL.E.'.R.F.G.r.3.,.4.&.x ! / - l l h 6 A c + Q XXa.b # S 0 O H <XqX#XD.F.%.",
"^.w.L.i P y 7 a C ^ &.4.A.W.%X-X&X6X0XwX0X7X-X&X9X0X-X@X@XW.Z.6.w.' ..$.3.-.H s Z c f D q f A q X Q T.m # . g & e ( -XpXQ.F.5.6.",
"_.<.L r F J 7 w i P #.<.t.K.U.U..X>X9X>X-X>X9XwX>X>X>X&X'.K.Z.t.r.$.R @.2.` s f a a d ! d a d f X ! | =   X . . 7 ) uX7X].( &.K.",
"(.w.' G L G 3 r G P ] =.r.K.W.W..X&X-X&X&X-X>X>X>X>X>X&X'.U.F.y.k.3.@.@.;.] H k } d 8 8 a ! ) k o x 9.I +     . 9 { sX0X`.r.t.4.",
"/.w.$.' T F 2 i G K T X.<.H.W. X&X%X@X@X&X-X-X%X]..X@X+X'.W.K.K.t.t.2.>.3.&.Q d d f a 8 f ~ ! 9 < Q P.L.y.-.s < 9 { sXsX&X>X=Xr.",
"Y.3.&.] ( i ; y i G Y X.3.H.!._..X.X.X.X@X%X.X_.E._.'.'.W.E.K.D.4.Z.m.6.3.] s 9 X + 9 9 + = % X @ H G.L.'.=Xu.G H *.uXxX>XkXgXm.",
"(.w.$.' _ i ; y p G ' <.M.H.U.R.Y.E.'..X.X_.E.Y._._.'.'.E.K.Z.t.Z.U.D.5.,.T r < % o % < @   % 7 2 _ H.t.5.R.K.M.8.8.wXvX<XjXpXt.",
"_.t.;.] ' G , r i P &.y.G.A.S.U.H.Y.'.@X.X_.E.E.Y.E._._.R.K.S.A.D.R.I.N.3.#.T [ &.K K [ ( ( *.u.M.M.R.U.D.K.H.E.P.w.wXvXqXiXqXZ.",
"(.M.3.X.' G 2 w G ( :.M.M.r.m.S.K.K.W. X'.W.R.'.H.K.Y.E.E.K.D.S.D.U.S.N.N.;.$.t.y.3.t.K.K.K.E.W.'.D.D.D.E.Y.w.w.w.&.wXgXqX=X:Xm.",
"L.M.t.#.( G , 3 G ( ;.r.3.;.3.A.A.A.S.E.E.K.K.R.L.Y.E.E.K.A.t.4.S.S.A.N.3.R E ;.@.%.6.6.>.6.S.D.Z.A.D.2.;.A.u.e.&.] wXqX-XR.R.@.",
").G.=., &.Q t 0 G ( &.;.3.t.y.r.m.m.A.A.S.K.K.K.A.S.W.R.t.t.m.;.,.4.3.#.' $.;.$.;.;.$.' ' ;.t.t.t.A.A.4.,.<.<.;.*.-.9X@X'.X.( r.",
"(.w.=.Y t.P 9 t i P ] &.:.r.t.t.4.4.4.t.y.A.A.m.A.m.K.K.t.;.;.,.;.3.;.' ' #.$.#.;.;.#.' ' $.3.4.t.y.t.3.;.:.:.-.e.P -X.X5.X.r.X.",
"_.3.3.4.N.T 2 p p H ( ] &.3.w.r.;.;.;.<.4.t.t.t.M.t.t.M.t.X.' <.;.;.=.' ' #.=.#.=.#.' ' X.#.;.3.4.;.=.=.=.&.&.&.:.i @XE.;.,.H.R ",
"_.A.S.N.1._ 5 3 r i K ( ] &.;.;.' ] X.&.;.<.<.<.r.t.<.<.<.' Y =.=.=.X._ ' #.#.X.' T _ X.=.#.=.<.&.' T _ ' ( ( ` P P ].Z.Z.Z.m.R ",
"_.S.I.F.1._ 3 2 7 p H P ( ` ' X.Y Y ( ] #.=.=.=.&.3.=.' X._ L _ ' _ T Y T _ _ T L J Y X.#.] ' #.[ L G K P K K ^ G G '.t.5.t.m.E ",
"_.t.A.S.U._ , 7 9 r s P ^ ^ Y ^ Y ( ' #.=.;.=.#._ &.] Y Y Y L J ( T Y Y T T Y Y F G L _ _ T Y P P G G G K H K P P 3 '.D.@.$.A.U ",
"(.B.H.t.'.] 1 7 2 7 s Q ^ P K Y _ ` X.=.:.-.X.] _ Y ( ( L K L J L Y ^ ( Y L K K V J K L L Y L J G L K G H H H H P 3 (.H.$.' <.L ",
").(._.X.(.-.t 6 2 7 s Q ( P K Y ( _ X.&.=.X.( L X.J Y X.Y J Y Y G J Y Y L G V C V J K G J ( ( Y x K P H s H H H y C L.t.K.X.J Y ",
"`.E.( J u.*.2 ; 9 < p K P K H s Q ) ] ( K K P Q ^ K K Y L V y C y C V G J i y C Z C C i i C C Z s H H i p p s s r y /.y.0.y i Q ",
"7X'.3.t.(.&.y ) ) H K ( P ( ` ) ) O.:.:.3.w.-.*.O.` ] #.X._ ( ] ^ ( Y _ X._ P ) ) ( ^ ( ( ( ^ Q H Q ( ^ P P P H K ( L.] ] P ` P ",
".X+X+X=XqX<X>XuX0X-X<XqX7XqXyXwXhXhXgXgXgXaXqX>X0X9XyXpXiX<X-X>XyXwX2X:X1X<X&X>X7X>X-X=X=X=X&X%X{.&X=X=X=X-X-X%X&X].=X=.#.X.&.G ",
">X1X1X$XQ.R.K.A.y.4.A.R.R.W..X.X=X>X=X+XW.R.R.Y.y.t.A.D.D.Z.M.H.J.K.t.4.t.t.t.G.y.t.t.4.4.4.w.r.:.w.t.4.4.t.k.y.A.:.:.P ' ' $.T ",
":XK.R.3X#XD.A.K.#...,.Z.F.R.'..X=.A.Q.Q.R.D.U.(.' ' @.2.t.t.S.Y.T $.$.%.2.6.t.A.] &.3.6.2.;.;.:.K #.4.2.7.4.y.y.;.#.#.T ( T ' i ",
"9X XW.$X+XD.6.;.J U ,.D.D.D.S.t.V =.R. XR.m.r.r.V L #.F.R.S.4.;.u _ $.,.6.2.;.3.G T ;.3.;.#.' ( p ( 3.6.3.t.t.w.4 G P F L &.3.J ",
"6X-X@X'.+X XK.4._ X.m.Q.R.S.m.<.<.H. X+XW.S.r.<.` X.4.W.@XK.;._ _ <.t.4.t.3.;.:._ ] =.3.7.&.] ( P &.w.6.4.M.y.:.] w.&.` P _ &.i ",
"P.:.#.3.t.@.E #._ Y R ..E E _ ' X.' R U U Y Y K ` L F T ' _ L J G T L F L L L K ^ K V F G G i y C Y L V F Y K y ^ P p C r 7 G y "
};
