/* XPM */
static char *_a059580ca374f74bbbd19f8c3c717ebXP0lAJuPkUX3017U[] = {
/* columns rows colors chars-per-pixel */
"40 40 9 1 ",
"  c None",
". c #34F20A",
"X c #35F20A",
"o c #34F30A",
"O c #35F30A",
"+ c #34F20B",
"@ c #35F20B",
"# c #34F30B",
"$ c #35F30B",
/* pixels */
"                                        ",
"                                        ",
"                                        ",
"                                        ",
"                                        ",
"                                        ",
"                                        ",
"                                        ",
"                                        ",
"                                        ",
"                                        ",
"                                        ",
"                                        ",
"                                        ",
"                   X                    ",
"                  XXX                   ",
"                 XXXXX                  ",
"                XXXXXXX                 ",
"               XXXXXXXXX                ",
"              XXXXXXXXXXX               ",
"              XXXXX XXXXX               ",
"              XXXX   XXXX               ",
"              XXX     XXX               ",
"              XX       XX               ",
"              X         X               ",
"                                        ",
"                                        ",
"                                        ",
"                                        ",
"                                        ",
"                                        ",
"                                        ",
"                                        ",
"                                        ",
"                                        ",
"                                        ",
"                                        ",
"                                        ",
"                                        ",
"                                        "
};
