/* XPM */
static char *b6d933a8e7134ffc91f6cbf4d3defe7c1UT6qFgNUw2sYzFn[] = {
/* columns rows colors chars-per-pixel */
"40 40 2 1 ",
"  c None",
". c #15FF00",
/* pixels */
"                                        ",
"                                        ",
"                                        ",
"                                        ",
"                                        ",
"                                        ",
"                                        ",
"                                        ",
"                                        ",
"                                        ",
"                                        ",
"                                        ",
"                                        ",
"                                        ",
"                                        ",
"                  ...                   ",
"                .......                 ",
"                .......                 ",
"               .........                ",
"               .........                ",
"               .........                ",
"                .......                 ",
"                .......                 ",
"                  ...                   ",
"                                        ",
"                                        ",
"                                        ",
"                                        ",
"                                        ",
"                                        ",
"                                        ",
"                                        ",
"                                        ",
"                                        ",
"                                        ",
"                                        ",
"                                        ",
"                                        ",
"                                        ",
"                                        "
};
