/* XPM */
static char *b8b91ad9ea5741b3a39beb4845361dedPb5c5PvqVdIb1cqG[] = {
/* columns rows colors chars-per-pixel */
"40 40 2 1 ",
"  c #464746",
". c #E016E0",
/* pixels */
"........................................",
".                                      .",
".                                      .",
".                                      .",
".                                      .",
".                                      .",
".                                      .",
".                                      .",
".                                      .",
".                                      .",
".                                      .",
".                                      .",
".                                      .",
".                                      .",
".                                      .",
".                                      .",
".                                      .",
".                                      .",
".                                      .",
".                                      .",
".                                      .",
".                                      .",
".                                      .",
".                                      .",
".                                      .",
".                                      .",
".                                      .",
".                                      .",
".                                      .",
".                                      .",
".                                      .",
".                                      .",
".                                      .",
".                                      .",
".                                      .",
".                                      .",
".                                      .",
".                                      .",
".                                      .",
"........................................"
};
